# xmcd
#
# Track frame offsets: 
#        150
#        12303
#        28370
#        39971
#        53501
#        66732
#        79692
#        96185
#        108885
#        121327
#        142341
#        158943
#        170599
#        184449
#        202256
#        216504
#        235023
#        246889
#        263361
#        278848
#
# Disc length: 3986 seconds
#
# Revision: 0
# Processed by: cddbd v1.5.2PL0 Copyright (c) Steve Scherf et al.
# Submitted via: ExactAudioCopyFreeDBPlugin 1.0
#
DISCID=2b0f9014
DTITLE=Various Artist - Talking In Your Sleep
DYEAR=2000
DGENRE=Country
TTITLE0=Glen Campbell - Galveston
TTITLE1=Billie Jo Spears - Blanket On The Ground
TTITLE2=Patsy Cline - Sweet Dreams
TTITLE3=Loretta Lynn - Coal Miner's Daughter
TTITLE4=Crystal Gayle - Talking In Your Sleep
TTITLE5=Willy Nelson - Crazy
TTITLE6=Vince Gill - Pretty Little Adriana
TTITLE7=Don Williams - You're My Best Friend
TTITLE8=Hank Williams - I Saw The Light
TTITLE9=Nanci Griffith - From A Distance
TTITLE10=Dr Hook - More Like The Movies
TTITLE11=Lacy J Dalton - Love Hurts
TTITLE12=Juice Newton - All I Have To Do Is Dream
TTITLE13=Chely Wright - Let Me In
TTITLE14=Asleep At The Wheel - Billy Dale (with Dolly Parton)
TTITLE15=Vince Gill - Pocket Full Of Gold
TTITLE16=Sam Millar - Can I Be Frank With You
TTITLE17=Suzy Bogguss - Eat At Joe's
TTITLE18=Billy Ray Cyrus - Achy Breaky Heart
TTITLE19=The Mavericks - Dance The Night Away
EXTD=
EXTT0=
EXTT1=
EXTT2=
EXTT3=
EXTT4=
EXTT5=
EXTT6=
EXTT7=
EXTT8=
EXTT9=
EXTT10=
EXTT11=
EXTT12=
EXTT13=
EXTT14=
EXTT15=
EXTT16=
EXTT17=
EXTT18=
EXTT19=
PLAYORDER=
